<svg width="310" height="360" viewBox="0 0 310 360" fill="none" xmlns="http://www.w3.org/2000/svg">
<g clip-path="url(#clip0_1188_18025)">
<rect width="310" height="360" rx="40" fill="#A1B7FF"/>
<rect x="29" y="180" width="252.167" height="49.7448" rx="24.8724" fill="white"/>
<rect x="41" y="191.758" width="65.2279" height="26.2279" rx="13.1139" fill="#F5F5F5"/>
<path d="M54.907 206.165L55.0525 206.19L55.0269 206.849L54.8813 206.875C54.1709 206.875 53.6145 206.601 53.4947 206.036C53.2294 206.627 52.6045 206.875 51.5174 206.875H50.2763C48.5302 206.875 47.8112 206.302 47.8112 205.026C47.8112 204.538 47.9481 203.973 48.1707 203.451L48.6671 203.631C48.4703 204.11 48.3675 204.495 48.3675 204.915C48.3675 205.788 49.0266 206.165 50.2763 206.165H51.5003C52.5446 206.165 53.2807 206.045 53.2807 205.309V200.858H53.8456V205.18C53.8456 206.045 54.2907 206.165 54.907 206.165ZM51.9283 203.871C51.9283 204.418 51.4832 204.727 50.7899 204.727H49.9254V204.127H50.7813C51.1408 204.127 51.4575 204.05 51.4575 203.888C51.4575 203.665 51.1152 203.511 50.2592 203.383V202.621L51.6886 201.833L51.8769 202.364L50.7129 202.929C51.5174 203.126 51.9283 203.374 51.9283 203.871ZM54.8846 206.875L54.739 206.849L54.7647 206.19L54.9102 206.165C55.6036 206.165 55.9631 205.899 55.9631 205.291C55.9631 204.795 55.8432 204.102 55.7319 203.58L56.2798 203.451C56.3825 203.939 56.5194 204.598 56.5194 205.197C56.5194 206.319 55.8175 206.875 54.8846 206.875ZM55.7833 208.373C55.5436 208.373 55.3639 208.176 55.3639 207.953C55.3639 207.731 55.5436 207.534 55.7833 207.534C56.0144 207.534 56.1942 207.731 56.1942 207.953C56.1942 208.176 56.0144 208.373 55.7833 208.373ZM57.5908 205.505V200.858H58.1557V205.266C58.1557 206.019 58.5837 206.165 59.1914 206.165H59.2256L59.3711 206.19L59.3455 206.849L59.2 206.875H59.1743C58.2841 206.875 57.5908 206.464 57.5908 205.505ZM66.9612 206.165L67.1067 206.19L67.0811 206.849L66.9356 206.875C66.0882 206.875 65.6174 206.618 65.4633 206.147C65.2836 206.644 64.8128 206.875 64.2821 206.875C63.6487 206.875 63.2122 206.627 63.0666 206.156C62.8869 206.644 62.4161 206.875 61.8683 206.875C61.252 206.875 60.7641 206.644 60.5844 206.139C60.4303 206.635 59.9681 206.875 59.1977 206.875L59.0522 206.849L59.0779 206.19L59.2234 206.165C59.9167 206.165 60.3704 206.019 60.3704 205.334V204.436H60.9353V205.334C60.9353 206.019 61.3462 206.165 61.9197 206.165C62.4247 206.165 62.8527 206.019 62.8527 205.334V204.436H63.4176V205.334C63.4176 206.019 63.8028 206.165 64.3335 206.165C64.8214 206.165 65.2408 206.019 65.2408 205.334V204.436H65.8057V205.334C65.8057 205.959 66.1053 206.165 66.9612 206.165ZM71.9882 204.495H72.9212L72.8784 205.257H71.3719C69.4717 206.558 68.3076 206.875 66.9381 206.875L66.7926 206.849L66.8183 206.19L66.9638 206.165C67.9567 206.165 68.9838 206.062 70.9611 204.881C70.7984 204.795 70.6101 204.684 70.3619 204.555C69.8398 204.281 69.3604 204.008 68.7442 204.008C68.1707 204.008 67.7684 204.23 67.5458 204.384L67.2719 203.922C67.4602 203.665 68.0337 203.297 68.7869 203.297C69.6343 203.297 70.1137 203.674 70.6272 203.982C71.3805 204.427 71.5089 204.495 71.9882 204.495ZM79.3996 201.14C79.16 201.14 78.9802 200.943 78.9802 200.721C78.9802 200.498 79.16 200.301 79.3996 200.301C79.6307 200.301 79.8105 200.498 79.8105 200.721C79.8105 200.943 79.6307 201.14 79.3996 201.14ZM80.4353 205.882C80.8376 205.993 81.1458 206.336 81.1458 206.909C81.1458 207.851 80.1785 208.929 78.1157 208.929C76.4295 208.929 75.4708 207.971 75.4708 206.541C75.4708 205.762 75.6933 205.018 75.933 204.461L76.4295 204.641C76.1727 205.214 76.0272 205.908 76.0272 206.387C76.0272 207.594 76.8403 208.219 78.2013 208.219C79.8961 208.219 80.5894 207.483 80.5894 207.003C80.5894 206.661 80.3497 206.447 79.6307 206.447H78.732V205.762H79.8704C80.1785 205.437 80.4096 204.958 80.4096 204.47V204.461C80.2641 204.744 79.9474 205.112 79.1514 205.112C78.2184 205.112 77.7391 204.521 77.7391 203.751C77.7391 202.741 78.381 201.962 79.3996 201.962C80.4096 201.962 80.9831 202.895 80.9831 204.11C80.9831 204.983 80.7178 205.523 80.4353 205.882ZM79.237 204.401C79.8447 204.401 80.2213 204.162 80.4096 203.905C80.4011 203.537 80.1357 202.672 79.3055 202.672C78.6293 202.672 78.2954 203.169 78.2954 203.614C78.2954 204.119 78.6635 204.401 79.237 204.401ZM77.7476 209.588C77.9702 209.588 78.1328 209.768 78.1328 209.982C78.1328 210.196 77.9787 210.376 77.7476 210.376C77.5336 210.376 77.3539 210.196 77.3539 209.982C77.3539 209.768 77.5336 209.588 77.7476 209.588ZM78.8261 209.588C79.0316 209.588 79.2113 209.768 79.2113 209.982C79.2113 210.196 79.0316 210.376 78.8261 210.376C78.595 210.376 78.4324 210.196 78.4324 209.982C78.4324 209.768 78.595 209.588 78.8261 209.588ZM88.7207 208.441L88.8577 209.058C88.6009 209.186 87.7535 209.58 86.461 209.58C84.8861 209.58 83.9531 208.869 83.9531 207.697C83.9531 206.832 84.3468 206.242 85.237 205.754C84.6806 205.497 84.3383 205 84.3383 204.256C84.3383 203.314 85.0145 202.373 86.1358 202.373C86.966 202.373 87.4796 202.98 87.6679 203.331L87.2827 203.699C87.0431 203.434 86.6408 203.083 86.1015 203.083C85.3825 203.083 84.8946 203.605 84.8946 204.23C84.8946 204.949 85.4938 205.317 86.2042 205.334C86.7264 205.146 87.3341 204.975 88.0531 204.795L88.19 205.42C85.5366 206.122 84.5095 206.687 84.5095 207.594C84.5095 208.227 84.9802 208.878 86.5124 208.878C87.5909 208.878 88.4725 208.553 88.7207 208.441ZM89.8212 206.875H89.2563V200.858H89.8212V206.875ZM95.8778 206.165L96.0233 206.19L95.9977 206.849L95.8521 206.875C95.0219 206.875 94.6624 206.507 94.3542 205.891C94.1231 206.575 93.5154 206.952 92.5739 206.952C90.9475 206.952 90.7507 206.028 90.8106 205.095L91.3327 205.069C91.2814 206.07 91.8377 206.242 92.6338 206.242C93.4469 206.242 94.0119 205.908 94.029 205.309L92.7878 202.689L93.3528 202.433L94.6795 205.206C95.0048 205.882 95.1931 206.165 95.8778 206.165ZM95.8515 206.875L95.706 206.849L95.7317 206.19L95.8772 206.165C96.5705 206.165 96.93 205.899 96.93 205.291C96.93 204.795 96.8102 204.102 96.6989 203.58L97.2468 203.451C97.3495 203.939 97.4864 204.598 97.4864 205.197C97.4864 206.319 96.7845 206.875 95.8515 206.875ZM96.211 208.322C95.9971 208.322 95.8173 208.142 95.8173 207.928C95.8173 207.714 95.9971 207.534 96.211 207.534C96.4336 207.534 96.5962 207.714 96.5962 207.928C96.5962 208.142 96.4422 208.322 96.211 208.322ZM97.2895 208.322C97.0584 208.322 96.8958 208.142 96.8958 207.928C96.8958 207.714 97.0584 207.534 97.2895 207.534C97.495 207.534 97.6747 207.714 97.6747 207.928C97.6747 208.142 97.495 208.322 97.2895 208.322ZM98.991 206.875H98.426V200.858H98.991V206.875Z" fill="#3E40ED"/>
<g clip-path="url(#clip1_1188_18025)">
<path d="M181.938 210.73C181.696 211.266 181.536 211.849 181.475 212.46L186.598 211.371C186.84 210.834 187 210.252 187.061 209.641L181.938 210.73Z" fill="#020044"/>
<path d="M186.597 208.107C186.839 207.571 186.999 206.988 187.06 206.377L183.07 207.226V205.594L186.597 204.845C186.839 204.308 186.999 203.726 187.06 203.115L183.07 203.963V198.095C182.458 198.438 181.915 198.895 181.474 199.434V204.302L179.878 204.641V197.297C179.266 197.64 178.723 198.097 178.282 198.636V204.98L174.71 205.739C174.468 206.276 174.308 206.859 174.247 207.469L178.282 206.612V208.667L173.958 209.586C173.715 210.122 173.555 210.705 173.494 211.316L178.02 210.354C178.389 210.277 178.705 210.059 178.911 209.76L179.741 208.529V208.529C179.827 208.402 179.878 208.248 179.878 208.083V206.273L181.474 205.934V209.197L186.597 208.107L186.597 208.107Z" fill="#020044"/>
</g>
<path d="M194.686 203.32C195.664 203.447 196.441 203.777 197.015 204.309C197.6 204.84 197.892 205.531 197.892 206.382C197.892 207.084 197.706 207.711 197.334 208.264C196.972 208.806 196.451 209.232 195.771 209.54C195.101 209.838 194.314 209.987 193.41 209.987C192.634 209.987 191.858 209.87 191.081 209.636C190.316 209.391 189.667 209.072 189.136 208.679L190.109 206.813C190.566 207.195 191.06 207.488 191.592 207.69C192.124 207.892 192.666 207.993 193.219 207.993C193.921 207.993 194.463 207.855 194.846 207.578C195.228 207.291 195.42 206.898 195.42 206.398C195.42 205.898 195.228 205.521 194.846 205.265C194.463 205 193.915 204.867 193.203 204.867H191.4V203.431L194.192 200.736H189.71L189.694 198.694H197.334V200.209L194.112 203.24L194.686 203.32ZM200.981 207.626C201.332 207.849 201.507 208.184 201.507 208.631C201.507 208.992 201.39 209.29 201.156 209.524C200.922 209.758 200.63 209.875 200.279 209.875C199.949 209.875 199.668 209.763 199.434 209.54C199.2 209.317 199.083 209.014 199.083 208.631C199.083 208.461 199.109 208.307 199.163 208.168C199.216 208.02 199.295 207.844 199.402 207.642L200.534 205.616H201.73L200.981 207.626ZM206.811 198.71V209.875H204.291V200.847H202.042V198.71H206.811ZM214.061 198.614C215.624 198.614 216.826 199.104 217.666 200.082C218.506 201.06 218.926 202.464 218.926 204.293C218.926 206.111 218.506 207.514 217.666 208.503C216.826 209.482 215.624 209.971 214.061 209.971C212.487 209.971 211.275 209.482 210.425 208.503C209.585 207.514 209.165 206.111 209.165 204.293C209.165 202.464 209.585 201.06 210.425 200.082C211.275 199.104 212.487 198.614 214.061 198.614ZM214.061 200.544C213.264 200.544 212.679 200.842 212.307 201.438C211.935 202.033 211.748 202.985 211.748 204.293C211.748 205.59 211.935 206.541 212.307 207.148C212.679 207.743 213.264 208.041 214.061 208.041C214.837 208.041 215.412 207.743 215.784 207.148C216.156 206.541 216.342 205.59 216.342 204.293C216.342 202.985 216.156 202.033 215.784 201.438C215.412 200.842 214.837 200.544 214.061 200.544ZM225.307 198.614C226.87 198.614 228.072 199.104 228.912 200.082C229.752 201.06 230.172 202.464 230.172 204.293C230.172 206.111 229.752 207.514 228.912 208.503C228.072 209.482 226.87 209.971 225.307 209.971C223.733 209.971 222.521 209.482 221.671 208.503C220.831 207.514 220.41 206.111 220.41 204.293C220.41 202.464 220.831 201.06 221.671 200.082C222.521 199.104 223.733 198.614 225.307 198.614ZM225.307 200.544C224.51 200.544 223.925 200.842 223.553 201.438C223.18 202.033 222.994 202.985 222.994 204.293C222.994 205.59 223.18 206.541 223.553 207.148C223.925 207.743 224.51 208.041 225.307 208.041C226.083 208.041 226.658 207.743 227.03 207.148C227.402 206.541 227.588 205.59 227.588 204.293C227.588 202.985 227.402 202.033 227.03 201.438C226.658 200.842 226.083 200.544 225.307 200.544Z" fill="#020044"/>
<path d="M242.13 205.58H238.92V208.752H237.081V205.58H233.871V203.665H237.081V200.474H238.92V203.665H242.13V205.58Z" fill="#020044"/>
<path d="M260.502 213.539C265.287 213.539 269.166 209.66 269.166 204.875C269.166 200.09 265.287 196.211 260.502 196.211C255.717 196.211 251.838 200.09 251.838 204.875C251.838 209.66 255.717 213.539 260.502 213.539Z" fill="#00AEEF"/>
<path fill-rule="evenodd" clip-rule="evenodd" d="M263.864 202.364C264.165 202.624 264.197 203.079 263.936 203.379L260.18 207.699C260.043 207.857 259.844 207.947 259.635 207.947C259.425 207.947 259.226 207.857 259.089 207.699L257.069 205.376C256.808 205.075 256.84 204.621 257.142 204.36C257.443 204.1 257.899 204.132 258.16 204.432L259.635 206.128L262.845 202.436C263.106 202.135 263.562 202.103 263.864 202.364Z" fill="#EDF3FF"/>
<rect x="29" y="235.625" width="252.167" height="49.7448" rx="24.8724" fill="white"/>
<rect x="41" y="247.383" width="65.2279" height="26.2279" rx="13.1139" fill="#F5F5F5"/>
<path d="M54.907 261.79L55.0525 261.815L55.0269 262.474L54.8813 262.5C54.1709 262.5 53.6145 262.226 53.4947 261.661C53.2294 262.252 52.6045 262.5 51.5174 262.5H50.2763C48.5302 262.5 47.8112 261.927 47.8112 260.651C47.8112 260.163 47.9481 259.598 48.1707 259.076L48.6671 259.256C48.4703 259.735 48.3675 260.12 48.3675 260.54C48.3675 261.413 49.0266 261.79 50.2763 261.79H51.5003C52.5446 261.79 53.2807 261.67 53.2807 260.934V256.483H53.8456V260.805C53.8456 261.67 54.2907 261.79 54.907 261.79ZM51.9283 259.496C51.9283 260.043 51.4832 260.352 50.7899 260.352H49.9254V259.752H50.7813C51.1408 259.752 51.4575 259.675 51.4575 259.513C51.4575 259.29 51.1152 259.136 50.2592 259.008V258.246L51.6886 257.458L51.8769 257.989L50.7129 258.554C51.5174 258.751 51.9283 258.999 51.9283 259.496ZM54.8846 262.5L54.739 262.474L54.7647 261.815L54.9102 261.79C55.6036 261.79 55.9631 261.524 55.9631 260.916C55.9631 260.42 55.8432 259.727 55.7319 259.205L56.2798 259.076C56.3825 259.564 56.5194 260.223 56.5194 260.822C56.5194 261.944 55.8175 262.5 54.8846 262.5ZM55.7833 263.998C55.5436 263.998 55.3639 263.801 55.3639 263.578C55.3639 263.356 55.5436 263.159 55.7833 263.159C56.0144 263.159 56.1942 263.356 56.1942 263.578C56.1942 263.801 56.0144 263.998 55.7833 263.998ZM57.5908 261.13V256.483H58.1557V260.891C58.1557 261.644 58.5837 261.79 59.1914 261.79H59.2256L59.3711 261.815L59.3455 262.474L59.2 262.5H59.1743C58.2841 262.5 57.5908 262.089 57.5908 261.13ZM66.9612 261.79L67.1067 261.815L67.0811 262.474L66.9356 262.5C66.0882 262.5 65.6174 262.243 65.4633 261.772C65.2836 262.269 64.8128 262.5 64.2821 262.5C63.6487 262.5 63.2122 262.252 63.0666 261.781C62.8869 262.269 62.4161 262.5 61.8683 262.5C61.252 262.5 60.7641 262.269 60.5844 261.764C60.4303 262.26 59.9681 262.5 59.1977 262.5L59.0522 262.474L59.0779 261.815L59.2234 261.79C59.9167 261.79 60.3704 261.644 60.3704 260.959V260.061H60.9353V260.959C60.9353 261.644 61.3462 261.79 61.9197 261.79C62.4247 261.79 62.8527 261.644 62.8527 260.959V260.061H63.4176V260.959C63.4176 261.644 63.8028 261.79 64.3335 261.79C64.8214 261.79 65.2408 261.644 65.2408 260.959V260.061H65.8057V260.959C65.8057 261.584 66.1053 261.79 66.9612 261.79ZM71.9882 260.12H72.9212L72.8784 260.882H71.3719C69.4717 262.183 68.3076 262.5 66.9381 262.5L66.7926 262.474L66.8183 261.815L66.9638 261.79C67.9567 261.79 68.9838 261.687 70.9611 260.506C70.7984 260.42 70.6101 260.309 70.3619 260.18C69.8398 259.906 69.3604 259.633 68.7442 259.633C68.1707 259.633 67.7684 259.855 67.5458 260.009L67.2719 259.547C67.4602 259.29 68.0337 258.922 68.7869 258.922C69.6343 258.922 70.1137 259.299 70.6272 259.607C71.3805 260.052 71.5089 260.12 71.9882 260.12ZM79.3996 256.765C79.16 256.765 78.9802 256.568 78.9802 256.346C78.9802 256.123 79.16 255.926 79.3996 255.926C79.6307 255.926 79.8105 256.123 79.8105 256.346C79.8105 256.568 79.6307 256.765 79.3996 256.765ZM80.4353 261.507C80.8376 261.618 81.1458 261.961 81.1458 262.534C81.1458 263.476 80.1785 264.554 78.1157 264.554C76.4295 264.554 75.4708 263.596 75.4708 262.166C75.4708 261.387 75.6933 260.643 75.933 260.086L76.4295 260.266C76.1727 260.839 76.0272 261.533 76.0272 262.012C76.0272 263.219 76.8403 263.844 78.2013 263.844C79.8961 263.844 80.5894 263.108 80.5894 262.628C80.5894 262.286 80.3497 262.072 79.6307 262.072H78.732V261.387H79.8704C80.1785 261.062 80.4096 260.583 80.4096 260.095V260.086C80.2641 260.369 79.9474 260.737 79.1514 260.737C78.2184 260.737 77.7391 260.146 77.7391 259.376C77.7391 258.366 78.381 257.587 79.3996 257.587C80.4096 257.587 80.9831 258.52 80.9831 259.735C80.9831 260.608 80.7178 261.148 80.4353 261.507ZM79.237 260.026C79.8447 260.026 80.2213 259.787 80.4096 259.53C80.4011 259.162 80.1357 258.297 79.3055 258.297C78.6293 258.297 78.2954 258.794 78.2954 259.239C78.2954 259.744 78.6635 260.026 79.237 260.026ZM77.7476 265.213C77.9702 265.213 78.1328 265.393 78.1328 265.607C78.1328 265.821 77.9787 266.001 77.7476 266.001C77.5336 266.001 77.3539 265.821 77.3539 265.607C77.3539 265.393 77.5336 265.213 77.7476 265.213ZM78.8261 265.213C79.0316 265.213 79.2113 265.393 79.2113 265.607C79.2113 265.821 79.0316 266.001 78.8261 266.001C78.595 266.001 78.4324 265.821 78.4324 265.607C78.4324 265.393 78.595 265.213 78.8261 265.213ZM88.7207 264.066L88.8577 264.683C88.6009 264.811 87.7535 265.205 86.461 265.205C84.8861 265.205 83.9531 264.494 83.9531 263.322C83.9531 262.457 84.3468 261.867 85.237 261.379C84.6806 261.122 84.3383 260.625 84.3383 259.881C84.3383 258.939 85.0145 257.998 86.1358 257.998C86.966 257.998 87.4796 258.605 87.6679 258.956L87.2827 259.324C87.0431 259.059 86.6408 258.708 86.1015 258.708C85.3825 258.708 84.8946 259.23 84.8946 259.855C84.8946 260.574 85.4938 260.942 86.2042 260.959C86.7264 260.771 87.3341 260.6 88.0531 260.42L88.19 261.045C85.5366 261.747 84.5095 262.312 84.5095 263.219C84.5095 263.852 84.9802 264.503 86.5124 264.503C87.5909 264.503 88.4725 264.178 88.7207 264.066ZM89.8212 262.5H89.2563V256.483H89.8212V262.5ZM95.8778 261.79L96.0233 261.815L95.9977 262.474L95.8521 262.5C95.0219 262.5 94.6624 262.132 94.3542 261.516C94.1231 262.2 93.5154 262.577 92.5739 262.577C90.9475 262.577 90.7507 261.653 90.8106 260.72L91.3327 260.694C91.2814 261.695 91.8377 261.867 92.6338 261.867C93.4469 261.867 94.0119 261.533 94.029 260.934L92.7878 258.314L93.3528 258.058L94.6795 260.831C95.0048 261.507 95.1931 261.79 95.8778 261.79ZM95.8515 262.5L95.706 262.474L95.7317 261.815L95.8772 261.79C96.5705 261.79 96.93 261.524 96.93 260.916C96.93 260.42 96.8102 259.727 96.6989 259.205L97.2468 259.076C97.3495 259.564 97.4864 260.223 97.4864 260.822C97.4864 261.944 96.7845 262.5 95.8515 262.5ZM96.211 263.947C95.9971 263.947 95.8173 263.767 95.8173 263.553C95.8173 263.339 95.9971 263.159 96.211 263.159C96.4336 263.159 96.5962 263.339 96.5962 263.553C96.5962 263.767 96.4422 263.947 96.211 263.947ZM97.2895 263.947C97.0584 263.947 96.8958 263.767 96.8958 263.553C96.8958 263.339 97.0584 263.159 97.2895 263.159C97.495 263.159 97.6747 263.339 97.6747 263.553C97.6747 263.767 97.495 263.947 97.2895 263.947ZM98.991 262.5H98.426V256.483H98.991V262.5Z" fill="#3E40ED"/>
<g clip-path="url(#clip2_1188_18025)">
<path d="M177.938 266.355C177.696 266.891 177.536 267.474 177.475 268.085L182.598 266.996C182.84 266.459 183 265.877 183.061 265.266L177.938 266.355Z" fill="#020044"/>
<path d="M182.597 263.732C182.839 263.196 182.999 262.613 183.06 262.002L179.07 262.851V261.219L182.597 260.47C182.839 259.933 182.999 259.351 183.06 258.74L179.07 259.588V253.72C178.458 254.063 177.915 254.52 177.474 255.059V259.927L175.878 260.266V252.922C175.266 253.265 174.723 253.722 174.282 254.261V260.605L170.71 261.364C170.468 261.901 170.308 262.484 170.247 263.094L174.282 262.237V264.292L169.958 265.211C169.715 265.747 169.555 266.33 169.494 266.941L174.02 265.979C174.389 265.902 174.705 265.684 174.911 265.385L175.741 264.154V264.154C175.827 264.027 175.878 263.873 175.878 263.708V261.898L177.474 261.559V264.822L182.597 263.732L182.597 263.732Z" fill="#020044"/>
</g>
<path d="M194.344 263.395V265.5H185.954V263.761L190.085 259.503C190.458 259.131 190.75 258.769 190.963 258.418C191.186 258.057 191.298 257.743 191.298 257.477C191.298 257.126 191.159 256.855 190.883 256.664C190.617 256.462 190.245 256.361 189.766 256.361C189.288 256.361 188.778 256.483 188.235 256.728C187.693 256.972 187.167 257.312 186.656 257.748L185.667 255.866C187.135 254.771 188.623 254.223 190.133 254.223C190.878 254.223 191.537 254.346 192.111 254.59C192.685 254.824 193.132 255.159 193.451 255.595C193.77 256.02 193.929 256.52 193.929 257.094C193.929 257.658 193.743 258.243 193.371 258.849C192.999 259.455 192.473 260.109 191.792 260.811L189.224 263.395H194.344ZM197.338 263.251C197.688 263.474 197.864 263.809 197.864 264.256C197.864 264.617 197.747 264.915 197.513 265.149C197.279 265.383 196.987 265.5 196.636 265.5C196.306 265.5 196.024 265.388 195.79 265.165C195.556 264.942 195.44 264.639 195.44 264.256C195.44 264.086 195.466 263.932 195.519 263.793C195.572 263.645 195.652 263.469 195.759 263.267L196.891 261.241H198.087L197.338 263.251ZM204.22 258.945C205.198 259.072 205.975 259.402 206.549 259.934C207.134 260.465 207.426 261.156 207.426 262.007C207.426 262.709 207.24 263.336 206.868 263.889C206.506 264.431 205.985 264.857 205.305 265.165C204.635 265.463 203.848 265.612 202.944 265.612C202.168 265.612 201.392 265.495 200.616 265.261C199.85 265.016 199.201 264.697 198.67 264.304L199.643 262.438C200.1 262.82 200.594 263.113 201.126 263.315C201.658 263.517 202.2 263.618 202.753 263.618C203.455 263.618 203.997 263.48 204.38 263.203C204.762 262.916 204.954 262.523 204.954 262.023C204.954 261.523 204.762 261.146 204.38 260.89C203.997 260.625 203.449 260.492 202.737 260.492H200.935V259.056L203.726 256.361H199.244L199.228 254.319H206.868V255.834L203.646 258.865L204.22 258.945ZM213.689 254.239C215.252 254.239 216.454 254.729 217.294 255.707C218.134 256.685 218.554 258.089 218.554 259.918C218.554 261.736 218.134 263.139 217.294 264.128C216.454 265.107 215.252 265.596 213.689 265.596C212.115 265.596 210.903 265.107 210.052 264.128C209.212 263.139 208.792 261.736 208.792 259.918C208.792 258.089 209.212 256.685 210.052 255.707C210.903 254.729 212.115 254.239 213.689 254.239ZM213.689 256.169C212.891 256.169 212.307 256.467 211.934 257.063C211.562 257.658 211.376 258.61 211.376 259.918C211.376 261.215 211.562 262.166 211.934 262.773C212.307 263.368 212.891 263.666 213.689 263.666C214.465 263.666 215.039 263.368 215.411 262.773C215.784 262.166 215.97 261.215 215.97 259.918C215.97 258.61 215.784 257.658 215.411 257.063C215.039 256.467 214.465 256.169 213.689 256.169ZM224.935 254.239C226.498 254.239 227.699 254.729 228.539 255.707C229.379 256.685 229.799 258.089 229.799 259.918C229.799 261.736 229.379 263.139 228.539 264.128C227.699 265.107 226.498 265.596 224.935 265.596C223.361 265.596 222.149 265.107 221.298 264.128C220.458 263.139 220.038 261.736 220.038 259.918C220.038 258.089 220.458 256.685 221.298 255.707C222.149 254.729 223.361 254.239 224.935 254.239ZM224.935 256.169C224.137 256.169 223.552 256.467 223.18 257.063C222.808 257.658 222.622 258.61 222.622 259.918C222.622 261.215 222.808 262.166 223.18 262.773C223.552 263.368 224.137 263.666 224.935 263.666C225.711 263.666 226.285 263.368 226.657 262.773C227.03 262.166 227.216 261.215 227.216 259.918C227.216 258.61 227.03 257.658 226.657 257.063C226.285 256.467 225.711 256.169 224.935 256.169Z" fill="#020044"/>
<path d="M242.13 261.205H238.92V264.377H237.081V261.205H233.871V259.29H237.081V256.099H238.92V259.29H242.13V261.205Z" fill="#020044"/>
<path d="M260.502 269.164C265.287 269.164 269.166 265.285 269.166 260.5C269.166 255.715 265.287 251.836 260.502 251.836C255.717 251.836 251.838 255.715 251.838 260.5C251.838 265.285 255.717 269.164 260.502 269.164Z" fill="#00AEEF"/>
<path fill-rule="evenodd" clip-rule="evenodd" d="M263.864 257.989C264.165 258.249 264.197 258.704 263.936 259.004L260.18 263.324C260.043 263.482 259.844 263.572 259.635 263.572C259.425 263.572 259.226 263.482 259.089 263.324L257.069 261.001C256.808 260.7 256.84 260.246 257.142 259.985C257.443 259.725 257.899 259.757 258.16 260.057L259.635 261.753L262.845 258.061C263.106 257.76 263.562 257.728 263.864 257.989Z" fill="#EDF3FF"/>
<rect x="29" y="291.25" width="252.167" height="49.7448" rx="24.8724" fill="white"/>
<rect x="41" y="303.008" width="65.2279" height="26.2279" rx="13.1139" fill="#F5F5F5"/>
<path d="M54.907 317.415L55.0525 317.44L55.0269 318.099L54.8813 318.125C54.1709 318.125 53.6145 317.851 53.4947 317.286C53.2294 317.877 52.6045 318.125 51.5174 318.125H50.2763C48.5302 318.125 47.8112 317.552 47.8112 316.276C47.8112 315.788 47.9481 315.223 48.1707 314.701L48.6671 314.881C48.4703 315.36 48.3675 315.745 48.3675 316.165C48.3675 317.038 49.0266 317.415 50.2763 317.415H51.5003C52.5446 317.415 53.2807 317.295 53.2807 316.559V312.108H53.8456V316.43C53.8456 317.295 54.2907 317.415 54.907 317.415ZM51.9283 315.121C51.9283 315.668 51.4832 315.977 50.7899 315.977H49.9254V315.377H50.7813C51.1408 315.377 51.4575 315.3 51.4575 315.138C51.4575 314.915 51.1152 314.761 50.2592 314.633V313.871L51.6886 313.083L51.8769 313.614L50.7129 314.179C51.5174 314.376 51.9283 314.624 51.9283 315.121ZM54.8846 318.125L54.739 318.099L54.7647 317.44L54.9102 317.415C55.6036 317.415 55.9631 317.149 55.9631 316.541C55.9631 316.045 55.8432 315.352 55.7319 314.83L56.2798 314.701C56.3825 315.189 56.5194 315.848 56.5194 316.447C56.5194 317.569 55.8175 318.125 54.8846 318.125ZM55.7833 319.623C55.5436 319.623 55.3639 319.426 55.3639 319.203C55.3639 318.981 55.5436 318.784 55.7833 318.784C56.0144 318.784 56.1942 318.981 56.1942 319.203C56.1942 319.426 56.0144 319.623 55.7833 319.623ZM57.5908 316.755V312.108H58.1557V316.516C58.1557 317.269 58.5837 317.415 59.1914 317.415H59.2256L59.3711 317.44L59.3455 318.099L59.2 318.125H59.1743C58.2841 318.125 57.5908 317.714 57.5908 316.755ZM66.9612 317.415L67.1067 317.44L67.0811 318.099L66.9356 318.125C66.0882 318.125 65.6174 317.868 65.4633 317.397C65.2836 317.894 64.8128 318.125 64.2821 318.125C63.6487 318.125 63.2122 317.877 63.0666 317.406C62.8869 317.894 62.4161 318.125 61.8683 318.125C61.252 318.125 60.7641 317.894 60.5844 317.389C60.4303 317.885 59.9681 318.125 59.1977 318.125L59.0522 318.099L59.0779 317.44L59.2234 317.415C59.9167 317.415 60.3704 317.269 60.3704 316.584V315.686H60.9353V316.584C60.9353 317.269 61.3462 317.415 61.9197 317.415C62.4247 317.415 62.8527 317.269 62.8527 316.584V315.686H63.4176V316.584C63.4176 317.269 63.8028 317.415 64.3335 317.415C64.8214 317.415 65.2408 317.269 65.2408 316.584V315.686H65.8057V316.584C65.8057 317.209 66.1053 317.415 66.9612 317.415ZM71.9882 315.745H72.9212L72.8784 316.507H71.3719C69.4717 317.808 68.3076 318.125 66.9381 318.125L66.7926 318.099L66.8183 317.44L66.9638 317.415C67.9567 317.415 68.9838 317.312 70.9611 316.131C70.7984 316.045 70.6101 315.934 70.3619 315.805C69.8398 315.531 69.3604 315.258 68.7442 315.258C68.1707 315.258 67.7684 315.48 67.5458 315.634L67.2719 315.172C67.4602 314.915 68.0337 314.547 68.7869 314.547C69.6343 314.547 70.1137 314.924 70.6272 315.232C71.3805 315.677 71.5089 315.745 71.9882 315.745ZM79.3996 312.39C79.16 312.39 78.9802 312.193 78.9802 311.971C78.9802 311.748 79.16 311.551 79.3996 311.551C79.6307 311.551 79.8105 311.748 79.8105 311.971C79.8105 312.193 79.6307 312.39 79.3996 312.39ZM80.4353 317.132C80.8376 317.243 81.1458 317.586 81.1458 318.159C81.1458 319.101 80.1785 320.179 78.1157 320.179C76.4295 320.179 75.4708 319.221 75.4708 317.791C75.4708 317.012 75.6933 316.268 75.933 315.711L76.4295 315.891C76.1727 316.464 76.0272 317.158 76.0272 317.637C76.0272 318.844 76.8403 319.469 78.2013 319.469C79.8961 319.469 80.5894 318.733 80.5894 318.253C80.5894 317.911 80.3497 317.697 79.6307 317.697H78.732V317.012H79.8704C80.1785 316.687 80.4096 316.208 80.4096 315.72V315.711C80.2641 315.994 79.9474 316.362 79.1514 316.362C78.2184 316.362 77.7391 315.771 77.7391 315.001C77.7391 313.991 78.381 313.212 79.3996 313.212C80.4096 313.212 80.9831 314.145 80.9831 315.36C80.9831 316.233 80.7178 316.773 80.4353 317.132ZM79.237 315.651C79.8447 315.651 80.2213 315.412 80.4096 315.155C80.4011 314.787 80.1357 313.922 79.3055 313.922C78.6293 313.922 78.2954 314.419 78.2954 314.864C78.2954 315.369 78.6635 315.651 79.237 315.651ZM77.7476 320.838C77.9702 320.838 78.1328 321.018 78.1328 321.232C78.1328 321.446 77.9787 321.626 77.7476 321.626C77.5336 321.626 77.3539 321.446 77.3539 321.232C77.3539 321.018 77.5336 320.838 77.7476 320.838ZM78.8261 320.838C79.0316 320.838 79.2113 321.018 79.2113 321.232C79.2113 321.446 79.0316 321.626 78.8261 321.626C78.595 321.626 78.4324 321.446 78.4324 321.232C78.4324 321.018 78.595 320.838 78.8261 320.838ZM88.7207 319.691L88.8577 320.308C88.6009 320.436 87.7535 320.83 86.461 320.83C84.8861 320.83 83.9531 320.119 83.9531 318.947C83.9531 318.082 84.3468 317.492 85.237 317.004C84.6806 316.747 84.3383 316.25 84.3383 315.506C84.3383 314.564 85.0145 313.623 86.1358 313.623C86.966 313.623 87.4796 314.23 87.6679 314.581L87.2827 314.949C87.0431 314.684 86.6408 314.333 86.1015 314.333C85.3825 314.333 84.8946 314.855 84.8946 315.48C84.8946 316.199 85.4938 316.567 86.2042 316.584C86.7264 316.396 87.3341 316.225 88.0531 316.045L88.19 316.67C85.5366 317.372 84.5095 317.937 84.5095 318.844C84.5095 319.477 84.9802 320.128 86.5124 320.128C87.5909 320.128 88.4725 319.803 88.7207 319.691ZM89.8212 318.125H89.2563V312.108H89.8212V318.125ZM95.8778 317.415L96.0233 317.44L95.9977 318.099L95.8521 318.125C95.0219 318.125 94.6624 317.757 94.3542 317.141C94.1231 317.825 93.5154 318.202 92.5739 318.202C90.9475 318.202 90.7507 317.278 90.8106 316.345L91.3327 316.319C91.2814 317.32 91.8377 317.492 92.6338 317.492C93.4469 317.492 94.0119 317.158 94.029 316.559L92.7878 313.939L93.3528 313.683L94.6795 316.456C95.0048 317.132 95.1931 317.415 95.8778 317.415ZM95.8515 318.125L95.706 318.099L95.7317 317.44L95.8772 317.415C96.5705 317.415 96.93 317.149 96.93 316.541C96.93 316.045 96.8102 315.352 96.6989 314.83L97.2468 314.701C97.3495 315.189 97.4864 315.848 97.4864 316.447C97.4864 317.569 96.7845 318.125 95.8515 318.125ZM96.211 319.572C95.9971 319.572 95.8173 319.392 95.8173 319.178C95.8173 318.964 95.9971 318.784 96.211 318.784C96.4336 318.784 96.5962 318.964 96.5962 319.178C96.5962 319.392 96.4422 319.572 96.211 319.572ZM97.2895 319.572C97.0584 319.572 96.8958 319.392 96.8958 319.178C96.8958 318.964 97.0584 318.784 97.2895 318.784C97.495 318.784 97.6747 318.964 97.6747 319.178C97.6747 319.392 97.495 319.572 97.2895 319.572ZM98.991 318.125H98.426V312.108H98.991V318.125Z" fill="#3E40ED"/>
<g clip-path="url(#clip3_1188_18025)">
<path d="M177.938 321.98C177.696 322.516 177.536 323.099 177.475 323.71L182.598 322.621C182.84 322.084 183 321.502 183.061 320.891L177.938 321.98Z" fill="#020044"/>
<path d="M182.597 319.357C182.839 318.821 182.999 318.238 183.06 317.627L179.07 318.476V316.844L182.597 316.095C182.839 315.558 182.999 314.976 183.06 314.365L179.07 315.213V309.345C178.458 309.688 177.915 310.145 177.474 310.684V315.552L175.878 315.891V308.547C175.266 308.89 174.723 309.347 174.282 309.886V316.23L170.71 316.989C170.468 317.526 170.308 318.109 170.247 318.719L174.282 317.862V319.917L169.958 320.836C169.715 321.372 169.555 321.955 169.494 322.566L174.02 321.604C174.389 321.527 174.705 321.309 174.911 321.01L175.741 319.779V319.779C175.827 319.652 175.878 319.498 175.878 319.333V317.523L177.474 317.184V320.447L182.597 319.357L182.597 319.357Z" fill="#020044"/>
</g>
<path d="M193.116 312.528C192.786 312.305 192.414 312.135 191.999 312.018C191.595 311.89 191.18 311.826 190.755 311.826C189.819 311.826 189.118 312.124 188.65 312.719C188.182 313.304 187.959 314.118 187.98 315.16C188.267 314.724 188.644 314.394 189.112 314.171C189.58 313.937 190.128 313.82 190.755 313.82C191.85 313.82 192.717 314.15 193.355 314.809C194.004 315.457 194.328 316.329 194.328 317.425C194.328 318.201 194.158 318.876 193.817 319.45C193.488 320.024 193.02 320.466 192.414 320.774C191.808 321.082 191.101 321.237 190.293 321.237C189.325 321.237 188.49 321.019 187.788 320.583C187.087 320.136 186.55 319.503 186.177 318.685C185.805 317.855 185.619 316.872 185.619 315.734C185.619 314.554 185.821 313.522 186.225 312.64C186.64 311.746 187.22 311.061 187.964 310.582C188.719 310.093 189.596 309.848 190.596 309.848C191.191 309.848 191.802 309.928 192.43 310.088C193.068 310.247 193.615 310.465 194.073 310.742L193.116 312.528ZM190.245 315.686C189.639 315.686 189.16 315.856 188.809 316.196C188.458 316.526 188.288 316.946 188.299 317.457C188.288 317.935 188.442 318.344 188.761 318.685C189.091 319.014 189.564 319.179 190.181 319.179C190.755 319.179 191.207 319.025 191.537 318.717C191.877 318.408 192.047 317.972 192.047 317.409C192.047 316.877 191.888 316.457 191.569 316.149C191.25 315.84 190.808 315.686 190.245 315.686ZM197.579 318.876C197.93 319.099 198.105 319.434 198.105 319.881C198.105 320.242 197.988 320.54 197.754 320.774C197.521 321.008 197.228 321.125 196.877 321.125C196.548 321.125 196.266 321.013 196.032 320.79C195.798 320.567 195.681 320.264 195.681 319.881C195.681 319.711 195.708 319.557 195.761 319.418C195.814 319.27 195.894 319.094 196 318.892L197.132 316.866H198.329L197.579 318.876ZM207.859 318.605H206.328V321.125H204.015V318.605H198.815V316.834L202.229 309.96H204.621L201.415 316.579H204.015V314.107H206.328V316.579H207.859V318.605ZM214.008 309.864C215.571 309.864 216.773 310.354 217.613 311.332C218.453 312.31 218.873 313.714 218.873 315.543C218.873 317.361 218.453 318.764 217.613 319.753C216.773 320.732 215.571 321.221 214.008 321.221C212.434 321.221 211.222 320.732 210.372 319.753C209.532 318.764 209.112 317.361 209.112 315.543C209.112 313.714 209.532 312.31 210.372 311.332C211.222 310.354 212.434 309.864 214.008 309.864ZM214.008 311.794C213.211 311.794 212.626 312.092 212.254 312.688C211.882 313.283 211.695 314.235 211.695 315.543C211.695 316.84 211.882 317.791 212.254 318.398C212.626 318.993 213.211 319.291 214.008 319.291C214.784 319.291 215.359 318.993 215.731 318.398C216.103 317.791 216.289 316.84 216.289 315.543C216.289 314.235 216.103 313.283 215.731 312.688C215.359 312.092 214.784 311.794 214.008 311.794ZM225.254 309.864C226.817 309.864 228.019 310.354 228.859 311.332C229.699 312.31 230.119 313.714 230.119 315.543C230.119 317.361 229.699 318.764 228.859 319.753C228.019 320.732 226.817 321.221 225.254 321.221C223.68 321.221 222.468 320.732 221.618 319.753C220.778 318.764 220.357 317.361 220.357 315.543C220.357 313.714 220.778 312.31 221.618 311.332C222.468 310.354 223.68 309.864 225.254 309.864ZM225.254 311.794C224.457 311.794 223.872 312.092 223.5 312.688C223.127 313.283 222.941 314.235 222.941 315.543C222.941 316.84 223.127 317.791 223.5 318.398C223.872 318.993 224.457 319.291 225.254 319.291C226.03 319.291 226.605 318.993 226.977 318.398C227.349 317.791 227.535 316.84 227.535 315.543C227.535 314.235 227.349 313.283 226.977 312.688C226.605 312.092 226.03 311.794 225.254 311.794Z" fill="#020044"/>
<path d="M242.13 316.83H238.92V320.002H237.081V316.83H233.871V314.915H237.081V311.724H238.92V314.915H242.13V316.83Z" fill="#020044"/>
<path d="M260.502 324.789C265.287 324.789 269.166 320.91 269.166 316.125C269.166 311.34 265.287 307.461 260.502 307.461C255.717 307.461 251.838 311.34 251.838 316.125C251.838 320.91 255.717 324.789 260.502 324.789Z" fill="#00AEEF"/>
<path fill-rule="evenodd" clip-rule="evenodd" d="M263.864 313.614C264.165 313.874 264.197 314.329 263.936 314.629L260.18 318.949C260.043 319.107 259.844 319.197 259.635 319.197C259.425 319.197 259.226 319.107 259.089 318.949L257.069 316.626C256.808 316.325 256.84 315.871 257.142 315.61C257.443 315.35 257.899 315.382 258.16 315.682L259.635 317.378L262.845 313.686C263.106 313.385 263.562 313.353 263.864 313.614Z" fill="#EDF3FF"/>
<rect x="29" y="346.875" width="252.167" height="49.7448" rx="24.8724" fill="white"/>
<rect x="41" y="358.633" width="65.2279" height="26.2279" rx="13.1139" fill="#F5F5F5"/>
</g>
<defs>
<clipPath id="clip0_1188_18025">
<rect width="310" height="360" rx="40" fill="white"/>
</clipPath>
<clipPath id="clip1_1188_18025">
<rect width="13.5662" height="15.1622" fill="white" transform="translate(173.494 197.297)"/>
</clipPath>
<clipPath id="clip2_1188_18025">
<rect width="13.5662" height="15.1622" fill="white" transform="translate(169.494 252.922)"/>
</clipPath>
<clipPath id="clip3_1188_18025">
<rect width="13.5662" height="15.1622" fill="white" transform="translate(169.494 308.547)"/>
</clipPath>
</defs>
</svg>
