<svg width="253" height="50" viewBox="0 0 253 50" fill="none" xmlns="http://www.w3.org/2000/svg">
<rect width="252.167" height="49.7448" rx="24.8724" fill="white"/>
<rect x="12" y="11.7578" width="65.2279" height="26.2279" rx="13.1139" fill="#F5F5F5"/>
<path d="M25.907 26.1646L26.0525 26.1902L26.0269 26.8493L25.8813 26.875C25.1709 26.875 24.6145 26.6011 24.4947 26.0362C24.2294 26.6268 23.6045 26.875 22.5174 26.875H21.2763C19.5302 26.875 18.8112 26.3015 18.8112 25.0261C18.8112 24.5383 18.9481 23.9733 19.1707 23.4512L19.6671 23.6309C19.4703 24.1103 19.3675 24.4955 19.3675 24.9149C19.3675 25.7879 20.0266 26.1646 21.2763 26.1646H22.5003C23.5446 26.1646 24.2807 26.0447 24.2807 25.3086V20.8577H24.8456V25.1802C24.8456 26.0447 25.2907 26.1646 25.907 26.1646ZM22.9283 23.8706C22.9283 24.4184 22.4832 24.7266 21.7899 24.7266H20.9254V24.1274H21.7813C22.1408 24.1274 22.4575 24.0504 22.4575 23.8877C22.4575 23.6652 22.1152 23.5111 21.2592 23.3827V22.6209L22.6886 21.8334L22.8769 22.3641L21.7129 22.9291C22.5174 23.1259 22.9283 23.3742 22.9283 23.8706ZM25.8846 26.875L25.739 26.8493L25.7647 26.1902L25.9102 26.1646C26.6036 26.1646 26.9631 25.8992 26.9631 25.2915C26.9631 24.795 26.8432 24.1017 26.7319 23.5796L27.2798 23.4512C27.3825 23.9391 27.5194 24.5982 27.5194 25.1973C27.5194 26.3186 26.8175 26.875 25.8846 26.875ZM26.7833 28.3729C26.5436 28.3729 26.3639 28.176 26.3639 27.9535C26.3639 27.731 26.5436 27.5341 26.7833 27.5341C27.0144 27.5341 27.1942 27.731 27.1942 27.9535C27.1942 28.176 27.0144 28.3729 26.7833 28.3729ZM28.5908 25.5055V20.8577H29.1557V25.2658C29.1557 26.019 29.5837 26.1646 30.1914 26.1646H30.2256L30.3711 26.1902L30.3455 26.8493L30.2 26.875H30.1743C29.2841 26.875 28.5908 26.4641 28.5908 25.5055ZM37.9612 26.1646L38.1067 26.1902L38.0811 26.8493L37.9356 26.875C37.0882 26.875 36.6174 26.6182 36.4633 26.1474C36.2836 26.6439 35.8128 26.875 35.2821 26.875C34.6487 26.875 34.2122 26.6268 34.0666 26.156C33.8869 26.6439 33.4161 26.875 32.8683 26.875C32.252 26.875 31.7641 26.6439 31.5844 26.1389C31.4303 26.6353 30.9681 26.875 30.1977 26.875L30.0522 26.8493L30.0779 26.1902L30.2234 26.1646C30.9167 26.1646 31.3704 26.019 31.3704 25.3343V24.4355H31.9353V25.3343C31.9353 26.019 32.3462 26.1646 32.9197 26.1646C33.4247 26.1646 33.8527 26.019 33.8527 25.3343V24.4355H34.4176V25.3343C34.4176 26.019 34.8028 26.1646 35.3335 26.1646C35.8214 26.1646 36.2408 26.019 36.2408 25.3343V24.4355H36.8057V25.3343C36.8057 25.9591 37.1053 26.1646 37.9612 26.1646ZM42.9882 24.4955H43.9212L43.8784 25.2573H42.3719C40.4717 26.5583 39.3076 26.875 37.9381 26.875L37.7926 26.8493L37.8183 26.1902L37.9638 26.1646C38.9567 26.1646 39.9838 26.0618 41.9611 24.8806C41.7984 24.795 41.6101 24.6838 41.3619 24.5554C40.8398 24.2815 40.3604 24.0076 39.7442 24.0076C39.1707 24.0076 38.7684 24.2301 38.5458 24.3842L38.2719 23.922C38.4602 23.6652 39.0337 23.2971 39.7869 23.2971C40.6343 23.2971 41.1137 23.6737 41.6272 23.9819C42.3805 24.427 42.5089 24.4955 42.9882 24.4955ZM50.3996 21.1401C50.16 21.1401 49.9802 20.9433 49.9802 20.7207C49.9802 20.4982 50.16 20.3013 50.3996 20.3013C50.6307 20.3013 50.8105 20.4982 50.8105 20.7207C50.8105 20.9433 50.6307 21.1401 50.3996 21.1401ZM51.4353 25.8821C51.8376 25.9934 52.1458 26.3358 52.1458 26.9092C52.1458 27.8508 51.1785 28.9293 49.1157 28.9293C47.4295 28.9293 46.4708 27.9706 46.4708 26.5412C46.4708 25.7623 46.6933 25.0176 46.933 24.4612L47.4295 24.641C47.1727 25.2145 47.0272 25.9078 47.0272 26.3871C47.0272 27.594 47.8403 28.2188 49.2013 28.2188C50.8961 28.2188 51.5894 27.4827 51.5894 27.0034C51.5894 26.661 51.3497 26.447 50.6307 26.447H49.732V25.7623H50.8704C51.1785 25.437 51.4096 24.9577 51.4096 24.4698V24.4612C51.2641 24.7437 50.9474 25.1117 50.1514 25.1117C49.2184 25.1117 48.7391 24.5211 48.7391 23.7508C48.7391 22.7408 49.381 21.9618 50.3996 21.9618C51.4096 21.9618 51.9831 22.8948 51.9831 24.1103C51.9831 24.9833 51.7178 25.5226 51.4353 25.8821ZM50.237 24.4013C50.8447 24.4013 51.2213 24.1616 51.4096 23.9048C51.4011 23.5368 51.1357 22.6723 50.3055 22.6723C49.6293 22.6723 49.2954 23.1687 49.2954 23.6138C49.2954 24.1188 49.6635 24.4013 50.237 24.4013ZM48.7476 29.5884C48.9702 29.5884 49.1328 29.7681 49.1328 29.9821C49.1328 30.1961 48.9787 30.3758 48.7476 30.3758C48.5336 30.3758 48.3539 30.1961 48.3539 29.9821C48.3539 29.7681 48.5336 29.5884 48.7476 29.5884ZM49.8261 29.5884C50.0316 29.5884 50.2113 29.7681 50.2113 29.9821C50.2113 30.1961 50.0316 30.3758 49.8261 30.3758C49.595 30.3758 49.4324 30.1961 49.4324 29.9821C49.4324 29.7681 49.595 29.5884 49.8261 29.5884ZM59.7207 28.4414L59.8577 29.0577C59.6009 29.1861 58.7535 29.5798 57.461 29.5798C55.8861 29.5798 54.9531 28.8694 54.9531 27.6967C54.9531 26.8322 55.3468 26.2416 56.237 25.7537C55.6806 25.4969 55.3383 25.0005 55.3383 24.2558C55.3383 23.3142 56.0145 22.3727 57.1358 22.3727C57.966 22.3727 58.4796 22.9804 58.6679 23.3314L58.2827 23.6994C58.0431 23.4341 57.6408 23.0831 57.1015 23.0831C56.3825 23.0831 55.8946 23.6053 55.8946 24.2301C55.8946 24.9491 56.4938 25.3172 57.2042 25.3343C57.7264 25.146 58.3341 24.9748 59.0531 24.795L59.19 25.4199C56.5366 26.1218 55.5095 26.6867 55.5095 27.594C55.5095 28.2274 55.9802 28.8779 57.5124 28.8779C58.5909 28.8779 59.4725 28.5527 59.7207 28.4414ZM60.8212 26.875H60.2563V20.8577H60.8212V26.875ZM66.8778 26.1646L67.0233 26.1902L66.9977 26.8493L66.8521 26.875C66.0219 26.875 65.6624 26.5069 65.3542 25.8907C65.1231 26.5754 64.5154 26.952 63.5739 26.952C61.9475 26.952 61.7507 26.0276 61.8106 25.0946L62.3327 25.0689C62.2814 26.0704 62.8377 26.2416 63.6338 26.2416C64.4469 26.2416 65.0119 25.9078 65.029 25.3086L63.7878 22.6894L64.3528 22.4326L65.6795 25.2059C66.0048 25.8821 66.1931 26.1646 66.8778 26.1646ZM66.8515 26.875L66.706 26.8493L66.7317 26.1902L66.8772 26.1646C67.5705 26.1646 67.93 25.8992 67.93 25.2915C67.93 24.795 67.8102 24.1017 67.6989 23.5796L68.2468 23.4512C68.3495 23.9391 68.4864 24.5982 68.4864 25.1973C68.4864 26.3186 67.7845 26.875 66.8515 26.875ZM67.211 28.3216C66.9971 28.3216 66.8173 28.1418 66.8173 27.9278C66.8173 27.7138 66.9971 27.5341 67.211 27.5341C67.4336 27.5341 67.5962 27.7138 67.5962 27.9278C67.5962 28.1418 67.4422 28.3216 67.211 28.3216ZM68.2895 28.3216C68.0584 28.3216 67.8958 28.1418 67.8958 27.9278C67.8958 27.7138 68.0584 27.5341 68.2895 27.5341C68.495 27.5341 68.6747 27.7138 68.6747 27.9278C68.6747 28.1418 68.495 28.3216 68.2895 28.3216ZM69.991 26.875H69.426V20.8577H69.991V26.875Z" fill="#3E40ED"/>
<g clip-path="url(#clip0_1188_18027)">
<path d="M152.938 30.7296C152.696 31.2664 152.536 31.849 152.475 32.4598L157.598 31.3708C157.84 30.8342 158 30.2515 158.061 29.6406L152.938 30.7296Z" fill="#020044"/>
<path d="M157.597 28.1075C157.839 27.5708 157.999 26.9881 158.06 26.3773L154.07 27.226V25.5944L157.597 24.8448C157.839 24.3082 157.999 23.7255 158.06 23.1146L154.07 23.9627V18.0949C153.458 18.4383 152.915 18.8953 152.474 19.4344V24.302L150.878 24.6413V17.2969C150.266 17.6401 149.723 18.0972 149.282 18.6363V24.9804L145.71 25.7392C145.468 26.2759 145.308 26.8585 145.247 27.4694L149.282 26.612V28.6667L144.958 29.5855C144.715 30.1222 144.555 30.7049 144.494 31.3157L149.02 30.3539C149.389 30.2773 149.705 30.0595 149.911 29.7597L150.741 28.5291V28.5289C150.827 28.4016 150.878 28.248 150.878 28.0827V26.2727L152.474 25.9335V29.1967L157.597 28.1072L157.597 28.1075Z" fill="#020044"/>
</g>
<path d="M165.686 23.3196C166.664 23.4472 167.441 23.7768 168.015 24.3085C168.6 24.8402 168.892 25.5313 168.892 26.382C168.892 27.0838 168.706 27.7111 168.334 28.2641C167.972 28.8064 167.451 29.2317 166.771 29.5401C166.101 29.8378 165.314 29.9866 164.41 29.9866C163.634 29.9866 162.858 29.8697 162.081 29.6358C161.316 29.3912 160.667 29.0722 160.136 28.6788L161.109 26.8126C161.566 27.1954 162.06 27.4878 162.592 27.6899C163.124 27.8919 163.666 27.9929 164.219 27.9929C164.921 27.9929 165.463 27.8547 165.846 27.5782C166.228 27.2911 166.42 26.8977 166.42 26.3979C166.42 25.8982 166.228 25.5207 165.846 25.2655C165.463 24.9997 164.915 24.8667 164.203 24.8667H162.4V23.4313L165.192 20.7357H160.71L160.694 18.6942H168.334V20.2094L165.112 23.2399L165.686 23.3196ZM171.981 27.6261C172.332 27.8494 172.507 28.1843 172.507 28.6309C172.507 28.9924 172.39 29.2902 172.156 29.5241C171.922 29.758 171.63 29.875 171.279 29.875C170.949 29.875 170.668 29.7634 170.434 29.5401C170.2 29.3168 170.083 29.0137 170.083 28.6309C170.083 28.4608 170.109 28.3066 170.163 28.1684C170.216 28.0195 170.295 27.8441 170.402 27.642L171.534 25.6164H172.73L171.981 27.6261ZM177.811 18.7101V29.875H175.291V20.8474H173.042V18.7101H177.811ZM185.061 18.6144C186.624 18.6144 187.826 19.1035 188.666 20.0818C189.506 21.0601 189.926 22.4636 189.926 24.2926C189.926 26.1108 189.506 27.5144 188.666 28.5033C187.826 29.4816 186.624 29.9707 185.061 29.9707C183.487 29.9707 182.275 29.4816 181.425 28.5033C180.585 27.5144 180.165 26.1108 180.165 24.2926C180.165 22.4636 180.585 21.0601 181.425 20.0818C182.275 19.1035 183.487 18.6144 185.061 18.6144ZM185.061 20.5443C184.264 20.5443 183.679 20.8421 183.307 21.4375C182.935 22.033 182.748 22.9847 182.748 24.2926C182.748 25.5898 182.935 26.5415 183.307 27.1476C183.679 27.743 184.264 28.0408 185.061 28.0408C185.837 28.0408 186.412 27.743 186.784 27.1476C187.156 26.5415 187.342 25.5898 187.342 24.2926C187.342 22.9847 187.156 22.033 186.784 21.4375C186.412 20.8421 185.837 20.5443 185.061 20.5443ZM196.307 18.6144C197.87 18.6144 199.072 19.1035 199.912 20.0818C200.752 21.0601 201.172 22.4636 201.172 24.2926C201.172 26.1108 200.752 27.5144 199.912 28.5033C199.072 29.4816 197.87 29.9707 196.307 29.9707C194.733 29.9707 193.521 29.4816 192.671 28.5033C191.831 27.5144 191.41 26.1108 191.41 24.2926C191.41 22.4636 191.831 21.0601 192.671 20.0818C193.521 19.1035 194.733 18.6144 196.307 18.6144ZM196.307 20.5443C195.51 20.5443 194.925 20.8421 194.553 21.4375C194.18 22.033 193.994 22.9847 193.994 24.2926C193.994 25.5898 194.18 26.5415 194.553 27.1476C194.925 27.743 195.51 28.0408 196.307 28.0408C197.083 28.0408 197.658 27.743 198.03 27.1476C198.402 26.5415 198.588 25.5898 198.588 24.2926C198.588 22.9847 198.402 22.033 198.03 21.4375C197.658 20.8421 197.083 20.5443 196.307 20.5443Z" fill="#020044"/>
<path d="M213.13 25.5801H209.92V28.7524H208.081V25.5801H204.871V23.6654H208.081V20.4743H209.92V23.6654H213.13V25.5801Z" fill="#020044"/>
<path d="M231.502 33.5392C236.287 33.5392 240.166 29.6601 240.166 24.8751C240.166 20.09 236.287 16.2109 231.502 16.2109C226.717 16.2109 222.838 20.09 222.838 24.8751C222.838 29.6601 226.717 33.5392 231.502 33.5392Z" fill="#00AEEF"/>
<path fill-rule="evenodd" clip-rule="evenodd" d="M234.864 22.3635C235.165 22.624 235.197 23.0787 234.936 23.3791L231.18 27.699C231.043 27.8568 230.844 27.9474 230.635 27.9474C230.425 27.9474 230.226 27.8568 230.089 27.699L228.069 25.3757C227.808 25.0753 227.84 24.6206 228.142 24.3601C228.443 24.0996 228.899 24.132 229.16 24.4324L230.635 26.1283L233.845 22.4358C234.106 22.1354 234.562 22.103 234.864 22.3635Z" fill="#EDF3FF"/>
<defs>
<clipPath id="clip0_1188_18027">
<rect width="13.5662" height="15.1622" fill="white" transform="translate(144.494 17.2969)"/>
</clipPath>
</defs>
</svg>
