<svg width="143" height="143" viewBox="0 0 143 143" fill="none" xmlns="http://www.w3.org/2000/svg">
<g filter="url(#filter0_d_1198_24645)">
<rect x="17" y="5" width="108.933" height="108.982" rx="33.0101" fill="white"/>
<rect x="16.5" y="4.5" width="109.933" height="109.982" rx="33.5101" stroke="#F5F5F5"/>
</g>
<path fill-rule="evenodd" clip-rule="evenodd" d="M97.5148 60.8602C95.1761 60.8735 93.1509 61.4411 91.4524 62.2863C91.3425 62.0664 91.2326 61.8514 91.1255 61.6419C90.6215 60.6563 90.1798 59.7925 90.0938 59.1175C90.0732 58.9515 90.0519 58.7968 90.0314 58.6484L90.0314 58.6482L90.0314 58.648L90.0314 58.6479V58.6478C89.9347 57.9467 89.8576 57.3873 89.9762 56.4504C90.0766 55.6564 90.4262 54.6299 90.6274 54.0392L90.6274 54.0391L90.6274 54.0391L90.6275 54.039C90.714 53.7851 90.773 53.6117 90.773 53.572C90.7598 53.4532 90.6292 52.8722 89.2836 52.859C87.938 52.8458 86.775 53.1231 86.6444 53.4796C86.5137 53.8361 86.2524 54.6547 86.0826 55.4997C85.8474 56.7408 83.3911 61.1375 81.9931 63.448C81.5358 62.5502 81.1438 61.758 81.0653 61.1241C81.0447 60.9577 81.0234 60.8025 81.0029 60.6537V60.6537C80.9063 59.9531 80.8292 59.3937 80.9479 58.4572C81.0484 57.6631 81.398 56.6368 81.5992 56.0461L81.5992 56.046C81.6858 55.792 81.7448 55.6186 81.7448 55.5789C81.7318 55.4601 81.6011 54.8791 80.2555 54.8659C78.9097 54.8527 77.747 55.13 77.6163 55.4865C77.5623 55.6339 77.506 55.865 77.4382 56.1432L77.4382 56.1432C77.3422 56.5376 77.223 57.0266 77.0545 57.5066C76.8014 58.2614 74.0046 64.5617 72.9044 67.0399L72.9038 67.0412L72.9035 67.0419L72.6644 67.5806C72.2333 68.5577 71.8545 69.3367 71.58 69.8648C71.3884 70.2335 71.458 70.1067 71.5085 70.0145L71.5086 70.0144L71.5086 70.0143C71.5304 69.9745 71.5487 69.9413 71.5408 69.9572C71.3056 70.4061 71.175 70.657 71.175 70.657V70.6703C70.992 71.0004 70.7961 71.3171 70.7045 71.3171C70.6391 71.3171 70.5085 70.4325 70.7306 69.218C71.0518 67.5247 71.6787 65.2021 72.0595 63.7914C72.2518 63.0789 72.3813 62.5991 72.377 62.5503C72.377 62.5465 72.3777 62.5405 72.3789 62.5326L72.3816 62.5163C72.4078 62.3572 72.5079 61.7513 71.619 61.4281C70.8504 61.1408 70.4807 61.4709 70.325 61.6098C70.2875 61.6433 70.2624 61.6657 70.2472 61.6657C70.1688 61.6657 70.1035 61.877 70.1035 61.877C70.1035 61.877 71.1618 57.4012 68.0783 57.4012C66.1447 57.4012 63.4793 59.5269 62.1597 61.4678C61.9053 61.6084 61.5639 61.7966 61.1589 62.0199L61.1569 62.021L61.1559 62.0215C60.23 62.5319 58.9729 63.225 57.6652 63.95C57.3778 64.1085 57.0861 64.2711 56.7945 64.4338L56.7942 64.4339C56.3569 64.6779 55.9196 64.9218 55.4964 65.1515L55.3528 64.9928C54.1992 63.7496 52.743 62.6184 51.2895 61.4892C48.0347 58.9608 44.7932 56.4427 44.9919 52.7006C45.0965 50.7333 45.7759 45.5444 58.2665 39.2597C68.4967 34.1104 76.6887 35.5232 78.1127 38.6656C80.1378 43.1547 73.7358 51.4991 63.1007 52.7006C59.0504 53.1627 56.9206 51.5783 56.3851 50.9842C55.8233 50.3636 55.7449 50.3372 55.5358 50.456C55.1961 50.6409 55.4052 51.1954 55.5358 51.5255C55.8494 52.3573 57.1559 53.8361 59.3771 54.5754C61.3237 55.2224 66.0796 55.5789 71.8284 53.3343C78.2696 50.8125 83.2998 43.8148 81.8234 37.9658C80.3209 32.0111 70.548 30.057 61.3107 33.3711C55.8101 35.3515 49.8523 38.4411 45.5668 42.4945C40.4713 47.3005 39.6613 51.4991 40.001 53.2419C40.8866 57.8735 45.816 61.3039 49.6779 63.9915C51.0013 64.9125 52.1994 65.7462 53.0663 66.5112C52.969 66.564 52.876 66.617 52.7873 66.6674C52.7211 66.7051 52.6574 66.7413 52.596 66.7752C50.8975 67.6201 44.4301 71.0399 42.81 74.6574C40.9809 78.7504 43.0975 81.6949 44.5085 82.091C48.8724 83.3189 53.3407 81.1139 55.7578 77.4831C58.1617 73.8522 57.8744 69.1386 56.7638 66.9865L56.7245 66.9073L58.0572 66.1151C58.9196 65.6001 59.7689 65.1248 60.5135 64.7154C60.0955 65.8641 59.7949 67.224 59.6382 69.2045C59.4553 71.5284 60.396 74.5386 61.6372 75.7269C62.186 76.2417 62.8392 76.255 63.2443 76.255C64.6815 76.255 65.3347 75.0534 66.0533 73.6144C66.9418 71.8583 67.7257 69.825 67.7257 69.825C67.7257 69.825 66.7458 75.3308 69.4242 75.3308C70.4041 75.3308 71.384 74.0501 71.8282 73.3899V73.4031C71.8282 73.4031 71.8544 73.3635 71.9066 73.2711C71.9614 73.1892 72.0137 73.1056 72.0634 73.0204V72.994C72.4554 72.3074 73.3307 70.7362 74.6373 68.1352C76.3226 64.7815 77.9428 60.5829 77.9428 60.5829C77.9428 60.5829 78.0996 61.6128 78.583 63.3028C78.782 63.9978 79.1439 64.7369 79.5082 65.481C79.67 65.8114 79.8322 66.1427 79.9809 66.4716C79.5889 67.0261 79.3538 67.3431 79.3538 67.3431L79.3668 67.3563C79.0534 67.7788 78.7005 68.2279 78.3348 68.6766C78.0665 69.0009 77.7877 69.3342 77.5117 69.6641C76.4165 70.9733 75.3661 72.2291 75.1991 72.6509C74.9509 73.2714 75.0031 73.7335 75.4865 74.1033C75.8393 74.3674 76.4664 74.42 77.1328 74.3674C78.3348 74.288 79.171 73.9845 79.5891 73.7995C80.2423 73.5618 80.9871 73.2053 81.7057 72.6772C83.0122 71.7003 83.8092 70.314 83.7308 68.4655C83.6916 67.4489 83.365 66.4454 82.9599 65.4948L82.9614 65.4926L82.9615 65.4925C83.0785 65.3216 83.1957 65.1506 83.3127 64.9667C85.377 61.9166 86.971 58.5631 86.971 58.5631C86.971 58.5631 87.1278 59.5929 87.6112 61.283C87.8148 61.9871 88.1856 62.7447 88.5576 63.5045L88.558 63.5052C88.6392 63.6712 88.7205 63.8373 88.8001 64.003C86.8665 65.6005 85.6514 67.449 85.2333 68.6637C84.4624 70.9082 85.0634 71.9249 86.2001 72.1625C86.7096 72.2682 87.4414 72.0305 87.99 71.7929C88.6694 71.5684 89.4925 71.1854 90.2504 70.6178C91.5569 69.6407 92.8112 68.2808 92.7459 66.4455C92.7067 65.6005 92.4846 64.7687 92.1841 63.9765C93.8303 63.29 95.9598 62.8939 98.6645 63.224C104.479 63.9105 105.628 67.581 105.406 69.1126C105.184 70.6443 103.969 71.4892 103.564 71.7532C103.159 72.0041 103.028 72.0967 103.068 72.2814C103.12 72.5588 103.303 72.5454 103.655 72.4928C104.139 72.4134 106.713 71.2385 106.817 68.4131C106.974 64.7817 103.564 60.8207 97.5148 60.8602ZM52.6741 76.1378C50.7535 78.2635 48.049 79.0689 46.8992 78.3824C45.658 77.6562 46.1413 74.527 48.5062 72.2693C49.9434 70.8961 51.8118 69.6286 53.0399 68.8496C53.2049 68.7464 53.4218 68.6146 53.6765 68.4599L53.6768 68.4597L53.6784 68.4587L53.6797 68.458L53.6833 68.4558C53.8503 68.3543 54.0335 68.243 54.2289 68.1234C54.3073 68.0708 54.3595 68.0442 54.3595 68.0442C54.451 67.9914 54.5555 67.9254 54.66 67.8594C55.5354 71.081 54.6992 73.9065 52.6741 76.1378ZM66.3147 67.5337C66.467 67.1318 66.6039 66.7706 66.7188 66.4862C67.1368 65.4564 68.77 60.8616 68.4303 60.2278C68.1428 59.7392 66.9931 60.1353 65.9347 61.3236C65.2814 62.0631 64.1709 63.9643 63.6483 65.562C62.6162 68.7308 63.0603 71.9392 63.7921 72.1372C64.495 72.3339 65.5828 69.4643 66.3147 67.5337ZM78.3086 72.0842C78.0212 72.2296 77.7599 72.3351 77.6423 72.256C77.5508 72.2032 77.7598 72.0051 77.7598 72.0051C77.7598 72.0051 79.21 70.4339 79.7849 69.7077C79.8967 69.5632 80.0161 69.411 80.1416 69.2509L80.1426 69.2496L80.1427 69.2495C80.3836 68.9423 80.647 68.6065 80.9216 68.2422V68.4006C80.9217 70.3018 79.1187 71.5693 78.3086 72.0842ZM87.7677 67.8456C87.0623 69.3772 87.036 69.8657 87.245 70.0242C88.2643 69.6545 89.9366 68.7699 89.9496 66.3933C89.9628 66.0367 89.8843 65.6539 89.7536 65.2578C88.6692 66.2216 88.0422 67.2383 87.7677 67.8456Z" fill="#CF649A"/>
<defs>
<filter id="filter0_d_1198_24645" x="0" y="0" width="142.934" height="142.984" filterUnits="userSpaceOnUse" color-interpolation-filters="sRGB">
<feFlood flood-opacity="0" result="BackgroundImageFix"/>
<feColorMatrix in="SourceAlpha" type="matrix" values="0 0 0 0 0 0 0 0 0 0 0 0 0 0 0 0 0 0 127 0" result="hardAlpha"/>
<feOffset dy="12"/>
<feGaussianBlur stdDeviation="8"/>
<feColorMatrix type="matrix" values="0 0 0 0 0 0 0 0 0 0 0 0 0 0 0 0 0 0 0.0280267 0"/>
<feBlend mode="normal" in2="BackgroundImageFix" result="effect1_dropShadow_1198_24645"/>
<feBlend mode="normal" in="SourceGraphic" in2="effect1_dropShadow_1198_24645" result="shape"/>
</filter>
</defs>
</svg>
