<svg width="143" height="143" viewBox="0 0 143 143" fill="none" xmlns="http://www.w3.org/2000/svg">
<g filter="url(#filter0_d_1198_24684)">
<rect x="17" y="5" width="108.933" height="108.982" rx="33.0101" fill="white"/>
<rect x="16.5" y="4.5" width="109.933" height="109.982" rx="33.5101" stroke="#F5F5F5"/>
</g>
<path d="M80.9352 45C79.4713 45 78.3125 46.1795 78.3125 47.6695C78.3125 49.1594 79.4713 50.339 80.9352 50.339C82.399 50.339 83.5578 49.1594 83.5578 47.6695C83.5578 46.1795 82.399 45 80.9352 45Z" fill="#014A2A"/>
<path d="M102.392 67.6562C100.989 67.6562 99.7695 68.8358 99.7695 70.3257C99.7695 71.7536 100.928 72.9952 102.392 72.9952C103.795 72.9952 105.015 71.8157 105.015 70.3257C105.015 68.8358 103.856 67.6562 102.392 67.6562Z" fill="#014A2A"/>
<path d="M109.666 50.4062C108.263 50.4062 107.105 51.5858 107.044 52.9516V53.0137V58.7251C106.983 59.9667 105.946 60.898 104.543 60.898H100.151C98.7486 60.898 97.7118 59.9667 97.6508 58.7251V53.0137V52.9516C97.5288 51.5237 96.3699 50.4062 95.0281 50.4062C93.5643 50.4062 92.4055 51.6479 92.4055 53.1378V58.2285C92.3445 59.5943 91.1856 60.7738 89.8438 60.7738H72.0341C70.7533 60.7738 69.5945 59.5943 69.5335 58.2285V53.0757C69.5335 51.5858 68.3746 50.4062 66.9108 50.4062C65.447 50.4062 64.2882 51.5858 64.2882 53.0757V58.3526C64.2272 59.6563 63.0683 60.7738 61.7875 60.7738H53.9195C52.4557 60.7738 51.2969 61.9533 51.2969 63.4433C51.2969 64.9332 52.3947 65.9886 53.9195 65.9886H61.7265C63.6782 65.9886 65.447 65.3057 66.9108 64.002C68.3136 65.3057 70.1434 65.9886 72.0341 65.9886H89.8438C91.7345 65.9886 93.5033 65.3057 94.9061 64.0641C96.3089 65.3057 98.1387 65.9886 100.151 65.9886H104.543C106.617 65.9886 108.507 65.2436 109.971 63.8778C111.435 62.5121 112.289 60.6496 112.289 58.601V53.0757C112.289 51.6479 111.13 50.4062 109.666 50.4062Z" fill="#014A2A"/>
<path d="M42.3211 60.7656C40.9793 60.7656 39.8814 59.6481 39.8814 58.2823C39.8814 56.9165 40.9793 55.7991 42.3211 55.7991C43.6629 55.7991 44.7608 56.9165 44.7608 58.2823C44.7608 59.6481 43.6629 60.7656 42.3211 60.7656ZM45.9196 51.3292C44.7608 50.7084 43.4799 50.3359 42.1991 50.3359C37.9297 50.3359 34.4531 53.8125 34.4531 58.1582C34.4531 60.2689 35.246 62.1934 36.7098 63.7455C38.1736 65.2354 40.1254 66.1045 42.1991 66.1045H45.9806C48.1153 66.1045 49.8231 64.3663 49.8231 62.0693V57.9719C49.8231 57.5994 49.8841 53.6262 45.9196 51.3292Z" fill="#E63946"/>
<path d="M51.1162 46.6763L50.9332 46.1797L50.5063 46.4901C49.8354 46.9867 49.1034 47.173 48.0056 47.4834C47.4567 47.6076 46.9077 47.7938 46.1758 48.0421C43.6752 48.8492 43.4922 51.6428 43.4922 51.767V52.0774L43.7971 52.2016C45.078 52.6361 48.3106 52.4499 50.0793 50.7116C51.8481 48.8492 51.1772 46.8005 51.1162 46.6763Z" fill="#70BC1F"/>
<path d="M43.8984 51.7017C43.8984 51.7017 45.2403 49.8393 47.253 49.3426C49.5097 48.846 50.6685 47.2939 50.6685 46.8594C50.6685 46.8594 50.5466 48.4114 47.436 49.4047C46.948 49.653 45.6062 49.9014 43.8984 51.7017Z" fill="white"/>
<defs>
<filter id="filter0_d_1198_24684" x="0" y="0" width="142.934" height="142.984" filterUnits="userSpaceOnUse" color-interpolation-filters="sRGB">
<feFlood flood-opacity="0" result="BackgroundImageFix"/>
<feColorMatrix in="SourceAlpha" type="matrix" values="0 0 0 0 0 0 0 0 0 0 0 0 0 0 0 0 0 0 127 0" result="hardAlpha"/>
<feOffset dy="12"/>
<feGaussianBlur stdDeviation="8"/>
<feColorMatrix type="matrix" values="0 0 0 0 0 0 0 0 0 0 0 0 0 0 0 0 0 0 0.0280267 0"/>
<feBlend mode="normal" in2="BackgroundImageFix" result="effect1_dropShadow_1198_24684"/>
<feBlend mode="normal" in="SourceGraphic" in2="effect1_dropShadow_1198_24684" result="shape"/>
</filter>
</defs>
</svg>
